<svg width="24" height="22" viewBox="0 0 24 22" fill="none" xmlns="http://www.w3.org/2000/svg">
<path d="M14.4 4.63158V2.31579H9.6V4.63158H14.4ZM2.4 8.10526V18.5263C2.4 19.1632 2.94 19.6842 3.6 19.6842H20.4C21.06 19.6842 21.6 19.1632 21.6 18.5263V8.10526C21.6 7.46842 21.06 6.94737 20.4 6.94737H3.6C2.94 6.94737 2.4 7.46842 2.4 8.10526ZM21.6 4.63158C22.932 4.63158 24 5.66211 24 6.94737V19.6842C24 20.9695 22.932 22 21.6 22H2.4C1.068 22 0 20.9695 0 19.6842L0.012 6.94737C0.012 5.66211 1.068 4.63158 2.4 4.63158H7.2V2.31579C7.2 1.03053 8.268 0 9.6 0H14.4C15.732 0 16.8 1.03053 16.8 2.31579V4.63158H21.6Z" fill="black" fill-opacity="0.6"/>
</svg>
