<svg width="26" height="24" viewBox="0 0 26 24" fill="none" xmlns="http://www.w3.org/2000/svg">
<path d="M24.9786 8.208C24.326 6.61113 23.38 5.16032 22.1929 3.936C21.0086 2.70873 19.6053 1.73065 18.0607 1.056C16.456 0.354 14.7556 0 13 0C11.2444 0 9.54397 0.354 7.93929 1.056C6.39469 1.73065 4.99138 2.70873 3.80714 3.936C2.62005 5.16032 1.67399 6.61113 1.02143 8.208C0.342411 9.867 0 11.625 0 13.44C0 17.421 1.69174 21.171 4.63996 23.733L4.68929 23.775C4.85759 23.919 5.06942 24 5.28705 24H20.7158C20.9335 24 21.1453 23.919 21.3136 23.775L21.3629 23.733C24.3083 21.171 26 17.421 26 13.44C26 11.625 25.6547 9.867 24.9786 8.208ZM20.2371 21.72H5.76295C4.64169 20.6748 3.74553 19.3975 3.13264 17.971C2.51975 16.5446 2.20382 15.0008 2.20536 13.44C2.20536 10.458 3.32835 7.656 5.3683 5.55C7.40826 3.441 10.1185 2.28 13 2.28C15.8844 2.28 18.5946 3.441 20.6317 5.55C22.6717 7.659 23.7946 10.461 23.7946 13.44C23.7946 16.608 22.5033 19.605 20.2371 21.72ZM16.2355 9.285C16.1919 9.24034 16.1329 9.21528 16.0715 9.21528C16.0101 9.21528 15.9512 9.24034 15.9076 9.285L13.4556 11.82C12.9129 11.67 12.3123 11.814 11.8857 12.255C11.7346 12.4109 11.6148 12.5961 11.533 12.7999C11.4512 13.0038 11.4091 13.2223 11.4091 13.443C11.4091 13.6637 11.4512 13.8822 11.533 14.0861C11.6148 14.2899 11.7346 14.4751 11.8857 14.631C12.0365 14.7872 12.2156 14.9111 12.4128 14.9957C12.61 15.0802 12.8214 15.1237 13.0348 15.1237C13.2483 15.1237 13.4597 15.0802 13.6568 14.9957C13.854 14.9111 14.0331 14.7872 14.1839 14.631C14.386 14.4227 14.5314 14.1629 14.6052 13.8779C14.6791 13.593 14.6789 13.2929 14.6047 13.008L17.0567 10.473C17.1467 10.38 17.1467 10.227 17.0567 10.134L16.2355 9.285ZM12.3616 6.24H13.6384C13.7661 6.24 13.8705 6.132 13.8705 6V3.6C13.8705 3.468 13.7661 3.36 13.6384 3.36H12.3616C12.2339 3.36 12.1295 3.468 12.1295 3.6V6C12.1295 6.132 12.2339 6.24 12.3616 6.24ZM19.9062 12.78V14.1C19.9062 14.232 20.0107 14.34 20.1384 14.34H22.4598C22.5875 14.34 22.692 14.232 22.692 14.1V12.78C22.692 12.648 22.5875 12.54 22.4598 12.54H20.1384C20.0107 12.54 19.9062 12.648 19.9062 12.78ZM20.2748 6.864L19.3723 5.931C19.3287 5.88634 19.2698 5.86128 19.2084 5.86128C19.147 5.86128 19.088 5.88634 19.0444 5.931L17.402 7.629C17.3588 7.67411 17.3346 7.73502 17.3346 7.7985C17.3346 7.86198 17.3588 7.92289 17.402 7.968L18.3045 8.901C18.3944 8.994 18.5424 8.994 18.6324 8.901L20.2748 7.203C20.3647 7.11 20.3647 6.957 20.2748 6.864ZM6.96719 5.931C6.92356 5.88634 6.86464 5.86128 6.80324 5.86128C6.74184 5.86128 6.68292 5.88634 6.63929 5.931L5.73683 6.864C5.69363 6.90911 5.66939 6.97002 5.66939 7.0335C5.66939 7.09698 5.69363 7.15789 5.73683 7.203L7.37924 8.901C7.4692 8.994 7.61719 8.994 7.70714 8.901L8.6096 7.968C8.69955 7.875 8.69955 7.722 8.6096 7.629L6.96719 5.931ZM5.74554 12.54H3.42411C3.29643 12.54 3.19196 12.648 3.19196 12.78V14.1C3.19196 14.232 3.29643 14.34 3.42411 14.34H5.74554C5.87321 14.34 5.97768 14.232 5.97768 14.1V12.78C5.97768 12.648 5.87321 12.54 5.74554 12.54Z" fill="black" fill-opacity="0.6"/>
</svg>
