<svg width="22" height="26" viewBox="0 0 22 26" fill="none" xmlns="http://www.w3.org/2000/svg">
<mask id="path-1-outside-1_6_2268" maskUnits="userSpaceOnUse" x="0" y="0" width="22" height="26" fill="black">
<rect fill="white" width="22" height="26"/>
<path d="M15.5833 11.875C15.2518 11.875 14.9339 11.7565 14.6995 11.5455C14.465 11.3345 14.3333 11.0484 14.3333 10.75C14.3333 10.4516 14.465 10.1655 14.6995 9.9545C14.9339 9.74353 15.2518 9.625 15.5833 9.625C15.9149 9.625 16.2328 9.74353 16.4672 9.9545C16.7016 10.1655 16.8333 10.4516 16.8333 10.75C16.8333 11.0484 16.7016 11.3345 16.4672 11.5455C16.2328 11.7565 15.9149 11.875 15.5833 11.875ZM15.5833 16.375C15.2518 16.375 14.9339 16.2565 14.6995 16.0455C14.465 15.8345 14.3333 15.5484 14.3333 15.25C14.3333 14.9516 14.465 14.6655 14.6995 14.4545C14.9339 14.2435 15.2518 14.125 15.5833 14.125C15.9149 14.125 16.2328 14.2435 16.4672 14.4545C16.7016 14.6655 16.8333 14.9516 16.8333 15.25C16.8333 15.5484 16.7016 15.8345 16.4672 16.0455C16.2328 16.2565 15.9149 16.375 15.5833 16.375ZM14.3333 19.75C14.3333 20.0484 14.465 20.3345 14.6995 20.5455C14.9339 20.7565 15.2518 20.875 15.5833 20.875C15.9149 20.875 16.2328 20.7565 16.4672 20.5455C16.7016 20.3345 16.8333 20.0484 16.8333 19.75C16.8333 19.4516 16.7016 19.1655 16.4672 18.9545C16.2328 18.7435 15.9149 18.625 15.5833 18.625C15.2518 18.625 14.9339 18.7435 14.6995 18.9545C14.465 19.1655 14.3333 19.4516 14.3333 19.75ZM12.6667 10.75C12.6667 10.5511 12.5789 10.3603 12.4226 10.2197C12.2663 10.079 12.0543 10 11.8333 10H6C5.77899 10 5.56702 10.079 5.41074 10.2197C5.25446 10.3603 5.16667 10.5511 5.16667 10.75C5.16667 10.9489 5.25446 11.1397 5.41074 11.2803C5.56702 11.421 5.77899 11.5 6 11.5H11.8333C12.0543 11.5 12.2663 11.421 12.4226 11.2803C12.5789 11.1397 12.6667 10.9489 12.6667 10.75ZM12.6667 15.25C12.6667 15.0511 12.5789 14.8603 12.4226 14.7197C12.2663 14.579 12.0543 14.5 11.8333 14.5H6C5.77899 14.5 5.56702 14.579 5.41074 14.7197C5.25446 14.8603 5.16667 15.0511 5.16667 15.25C5.16667 15.4489 5.25446 15.6397 5.41074 15.7803C5.56702 15.921 5.77899 16 6 16H11.8333C12.0543 16 12.2663 15.921 12.4226 15.7803C12.5789 15.6397 12.6667 15.4489 12.6667 15.25ZM12.6667 19.75C12.6667 19.5511 12.5789 19.3603 12.4226 19.2197C12.2663 19.079 12.0543 19 11.8333 19H6C5.77899 19 5.56702 19.079 5.41074 19.2197C5.25446 19.3603 5.16667 19.5511 5.16667 19.75C5.16667 19.9489 5.25446 20.1397 5.41074 20.2803C5.56702 20.421 5.77899 20.5 6 20.5H11.8333C12.0543 20.5 12.2663 20.421 12.4226 20.2803C12.5789 20.1397 12.6667 19.9489 12.6667 19.75ZM8.5 1C7.98279 0.999756 7.47823 1.14389 7.05585 1.41254C6.63347 1.68119 6.31407 2.06113 6.14167 2.5H3.5C2.83696 2.5 2.20107 2.73705 1.73223 3.15901C1.26339 3.58097 1 4.15326 1 4.75V22.75C1 23.3467 1.26339 23.919 1.73223 24.341C2.20107 24.7629 2.83696 25 3.5 25H18.5C19.163 25 19.7989 24.7629 20.2678 24.341C20.7366 23.919 21 23.3467 21 22.75V4.75C21 4.15326 20.7366 3.58097 20.2678 3.15901C19.7989 2.73705 19.163 2.5 18.5 2.5H15.8583C15.6859 2.06113 15.3665 1.68119 14.9441 1.41254C14.5218 1.14389 14.0172 0.999756 13.5 1H8.5ZM7.66667 3.25C7.66667 3.05109 7.75446 2.86032 7.91074 2.71967C8.06702 2.57902 8.27899 2.5 8.5 2.5H13.5C13.721 2.5 13.933 2.57902 14.0893 2.71967C14.2455 2.86032 14.3333 3.05109 14.3333 3.25C14.3333 3.44891 14.2455 3.63968 14.0893 3.78033C13.933 3.92098 13.721 4 13.5 4H8.5C8.27899 4 8.06702 3.92098 7.91074 3.78033C7.75446 3.63968 7.66667 3.44891 7.66667 3.25ZM3.5 4H6.14167C6.31407 4.43887 6.63347 4.81881 7.05585 5.08746C7.47823 5.35611 7.98279 5.50024 8.5 5.5H13.5C14.0172 5.50024 14.5218 5.35611 14.9441 5.08746C15.3665 4.81881 15.6859 4.43887 15.8583 4H18.5C18.721 4 18.933 4.07902 19.0893 4.21967C19.2455 4.36032 19.3333 4.55109 19.3333 4.75V22.75C19.3333 22.9489 19.2455 23.1397 19.0893 23.2803C18.933 23.421 18.721 23.5 18.5 23.5H3.5C3.27899 23.5 3.06702 23.421 2.91074 23.2803C2.75446 23.1397 2.66667 22.9489 2.66667 22.75V4.75C2.66667 4.55109 2.75446 4.36032 2.91074 4.21967C3.06702 4.07902 3.27899 4 3.5 4Z"/>
</mask>
<path d="M15.5833 11.875C15.2518 11.875 14.9339 11.7565 14.6995 11.5455C14.465 11.3345 14.3333 11.0484 14.3333 10.75C14.3333 10.4516 14.465 10.1655 14.6995 9.9545C14.9339 9.74353 15.2518 9.625 15.5833 9.625C15.9149 9.625 16.2328 9.74353 16.4672 9.9545C16.7016 10.1655 16.8333 10.4516 16.8333 10.75C16.8333 11.0484 16.7016 11.3345 16.4672 11.5455C16.2328 11.7565 15.9149 11.875 15.5833 11.875ZM15.5833 16.375C15.2518 16.375 14.9339 16.2565 14.6995 16.0455C14.465 15.8345 14.3333 15.5484 14.3333 15.25C14.3333 14.9516 14.465 14.6655 14.6995 14.4545C14.9339 14.2435 15.2518 14.125 15.5833 14.125C15.9149 14.125 16.2328 14.2435 16.4672 14.4545C16.7016 14.6655 16.8333 14.9516 16.8333 15.25C16.8333 15.5484 16.7016 15.8345 16.4672 16.0455C16.2328 16.2565 15.9149 16.375 15.5833 16.375ZM14.3333 19.75C14.3333 20.0484 14.465 20.3345 14.6995 20.5455C14.9339 20.7565 15.2518 20.875 15.5833 20.875C15.9149 20.875 16.2328 20.7565 16.4672 20.5455C16.7016 20.3345 16.8333 20.0484 16.8333 19.75C16.8333 19.4516 16.7016 19.1655 16.4672 18.9545C16.2328 18.7435 15.9149 18.625 15.5833 18.625C15.2518 18.625 14.9339 18.7435 14.6995 18.9545C14.465 19.1655 14.3333 19.4516 14.3333 19.75ZM12.6667 10.75C12.6667 10.5511 12.5789 10.3603 12.4226 10.2197C12.2663 10.079 12.0543 10 11.8333 10H6C5.77899 10 5.56702 10.079 5.41074 10.2197C5.25446 10.3603 5.16667 10.5511 5.16667 10.75C5.16667 10.9489 5.25446 11.1397 5.41074 11.2803C5.56702 11.421 5.77899 11.5 6 11.5H11.8333C12.0543 11.5 12.2663 11.421 12.4226 11.2803C12.5789 11.1397 12.6667 10.9489 12.6667 10.75ZM12.6667 15.25C12.6667 15.0511 12.5789 14.8603 12.4226 14.7197C12.2663 14.579 12.0543 14.5 11.8333 14.5H6C5.77899 14.5 5.56702 14.579 5.41074 14.7197C5.25446 14.8603 5.16667 15.0511 5.16667 15.25C5.16667 15.4489 5.25446 15.6397 5.41074 15.7803C5.56702 15.921 5.77899 16 6 16H11.8333C12.0543 16 12.2663 15.921 12.4226 15.7803C12.5789 15.6397 12.6667 15.4489 12.6667 15.25ZM12.6667 19.75C12.6667 19.5511 12.5789 19.3603 12.4226 19.2197C12.2663 19.079 12.0543 19 11.8333 19H6C5.77899 19 5.56702 19.079 5.41074 19.2197C5.25446 19.3603 5.16667 19.5511 5.16667 19.75C5.16667 19.9489 5.25446 20.1397 5.41074 20.2803C5.56702 20.421 5.77899 20.5 6 20.5H11.8333C12.0543 20.5 12.2663 20.421 12.4226 20.2803C12.5789 20.1397 12.6667 19.9489 12.6667 19.75ZM8.5 1C7.98279 0.999756 7.47823 1.14389 7.05585 1.41254C6.63347 1.68119 6.31407 2.06113 6.14167 2.5H3.5C2.83696 2.5 2.20107 2.73705 1.73223 3.15901C1.26339 3.58097 1 4.15326 1 4.75V22.75C1 23.3467 1.26339 23.919 1.73223 24.341C2.20107 24.7629 2.83696 25 3.5 25H18.5C19.163 25 19.7989 24.7629 20.2678 24.341C20.7366 23.919 21 23.3467 21 22.75V4.75C21 4.15326 20.7366 3.58097 20.2678 3.15901C19.7989 2.73705 19.163 2.5 18.5 2.5H15.8583C15.6859 2.06113 15.3665 1.68119 14.9441 1.41254C14.5218 1.14389 14.0172 0.999756 13.5 1H8.5ZM7.66667 3.25C7.66667 3.05109 7.75446 2.86032 7.91074 2.71967C8.06702 2.57902 8.27899 2.5 8.5 2.5H13.5C13.721 2.5 13.933 2.57902 14.0893 2.71967C14.2455 2.86032 14.3333 3.05109 14.3333 3.25C14.3333 3.44891 14.2455 3.63968 14.0893 3.78033C13.933 3.92098 13.721 4 13.5 4H8.5C8.27899 4 8.06702 3.92098 7.91074 3.78033C7.75446 3.63968 7.66667 3.44891 7.66667 3.25ZM3.5 4H6.14167C6.31407 4.43887 6.63347 4.81881 7.05585 5.08746C7.47823 5.35611 7.98279 5.50024 8.5 5.5H13.5C14.0172 5.50024 14.5218 5.35611 14.9441 5.08746C15.3665 4.81881 15.6859 4.43887 15.8583 4H18.5C18.721 4 18.933 4.07902 19.0893 4.21967C19.2455 4.36032 19.3333 4.55109 19.3333 4.75V22.75C19.3333 22.9489 19.2455 23.1397 19.0893 23.2803C18.933 23.421 18.721 23.5 18.5 23.5H3.5C3.27899 23.5 3.06702 23.421 2.91074 23.2803C2.75446 23.1397 2.66667 22.9489 2.66667 22.75V4.75C2.66667 4.55109 2.75446 4.36032 2.91074 4.21967C3.06702 4.07902 3.27899 4 3.5 4Z" fill="black" fill-opacity="0.6"/>
<path d="M15.5833 11.875C15.2518 11.875 14.9339 11.7565 14.6995 11.5455C14.465 11.3345 14.3333 11.0484 14.3333 10.75C14.3333 10.4516 14.465 10.1655 14.6995 9.9545C14.9339 9.74353 15.2518 9.625 15.5833 9.625C15.9149 9.625 16.2328 9.74353 16.4672 9.9545C16.7016 10.1655 16.8333 10.4516 16.8333 10.75C16.8333 11.0484 16.7016 11.3345 16.4672 11.5455C16.2328 11.7565 15.9149 11.875 15.5833 11.875ZM15.5833 16.375C15.2518 16.375 14.9339 16.2565 14.6995 16.0455C14.465 15.8345 14.3333 15.5484 14.3333 15.25C14.3333 14.9516 14.465 14.6655 14.6995 14.4545C14.9339 14.2435 15.2518 14.125 15.5833 14.125C15.9149 14.125 16.2328 14.2435 16.4672 14.4545C16.7016 14.6655 16.8333 14.9516 16.8333 15.25C16.8333 15.5484 16.7016 15.8345 16.4672 16.0455C16.2328 16.2565 15.9149 16.375 15.5833 16.375ZM14.3333 19.75C14.3333 20.0484 14.465 20.3345 14.6995 20.5455C14.9339 20.7565 15.2518 20.875 15.5833 20.875C15.9149 20.875 16.2328 20.7565 16.4672 20.5455C16.7016 20.3345 16.8333 20.0484 16.8333 19.75C16.8333 19.4516 16.7016 19.1655 16.4672 18.9545C16.2328 18.7435 15.9149 18.625 15.5833 18.625C15.2518 18.625 14.9339 18.7435 14.6995 18.9545C14.465 19.1655 14.3333 19.4516 14.3333 19.75ZM12.6667 10.75C12.6667 10.5511 12.5789 10.3603 12.4226 10.2197C12.2663 10.079 12.0543 10 11.8333 10H6C5.77899 10 5.56702 10.079 5.41074 10.2197C5.25446 10.3603 5.16667 10.5511 5.16667 10.75C5.16667 10.9489 5.25446 11.1397 5.41074 11.2803C5.56702 11.421 5.77899 11.5 6 11.5H11.8333C12.0543 11.5 12.2663 11.421 12.4226 11.2803C12.5789 11.1397 12.6667 10.9489 12.6667 10.75ZM12.6667 15.25C12.6667 15.0511 12.5789 14.8603 12.4226 14.7197C12.2663 14.579 12.0543 14.5 11.8333 14.5H6C5.77899 14.5 5.56702 14.579 5.41074 14.7197C5.25446 14.8603 5.16667 15.0511 5.16667 15.25C5.16667 15.4489 5.25446 15.6397 5.41074 15.7803C5.56702 15.921 5.77899 16 6 16H11.8333C12.0543 16 12.2663 15.921 12.4226 15.7803C12.5789 15.6397 12.6667 15.4489 12.6667 15.25ZM12.6667 19.75C12.6667 19.5511 12.5789 19.3603 12.4226 19.2197C12.2663 19.079 12.0543 19 11.8333 19H6C5.77899 19 5.56702 19.079 5.41074 19.2197C5.25446 19.3603 5.16667 19.5511 5.16667 19.75C5.16667 19.9489 5.25446 20.1397 5.41074 20.2803C5.56702 20.421 5.77899 20.5 6 20.5H11.8333C12.0543 20.5 12.2663 20.421 12.4226 20.2803C12.5789 20.1397 12.6667 19.9489 12.6667 19.75ZM8.5 1C7.98279 0.999756 7.47823 1.14389 7.05585 1.41254C6.63347 1.68119 6.31407 2.06113 6.14167 2.5H3.5C2.83696 2.5 2.20107 2.73705 1.73223 3.15901C1.26339 3.58097 1 4.15326 1 4.75V22.75C1 23.3467 1.26339 23.919 1.73223 24.341C2.20107 24.7629 2.83696 25 3.5 25H18.5C19.163 25 19.7989 24.7629 20.2678 24.341C20.7366 23.919 21 23.3467 21 22.75V4.75C21 4.15326 20.7366 3.58097 20.2678 3.15901C19.7989 2.73705 19.163 2.5 18.5 2.5H15.8583C15.6859 2.06113 15.3665 1.68119 14.9441 1.41254C14.5218 1.14389 14.0172 0.999756 13.5 1H8.5ZM7.66667 3.25C7.66667 3.05109 7.75446 2.86032 7.91074 2.71967C8.06702 2.57902 8.27899 2.5 8.5 2.5H13.5C13.721 2.5 13.933 2.57902 14.0893 2.71967C14.2455 2.86032 14.3333 3.05109 14.3333 3.25C14.3333 3.44891 14.2455 3.63968 14.0893 3.78033C13.933 3.92098 13.721 4 13.5 4H8.5C8.27899 4 8.06702 3.92098 7.91074 3.78033C7.75446 3.63968 7.66667 3.44891 7.66667 3.25ZM3.5 4H6.14167C6.31407 4.43887 6.63347 4.81881 7.05585 5.08746C7.47823 5.35611 7.98279 5.50024 8.5 5.5H13.5C14.0172 5.50024 14.5218 5.35611 14.9441 5.08746C15.3665 4.81881 15.6859 4.43887 15.8583 4H18.5C18.721 4 18.933 4.07902 19.0893 4.21967C19.2455 4.36032 19.3333 4.55109 19.3333 4.75V22.75C19.3333 22.9489 19.2455 23.1397 19.0893 23.2803C18.933 23.421 18.721 23.5 18.5 23.5H3.5C3.27899 23.5 3.06702 23.421 2.91074 23.2803C2.75446 23.1397 2.66667 22.9489 2.66667 22.75V4.75C2.66667 4.55109 2.75446 4.36032 2.91074 4.21967C3.06702 4.07902 3.27899 4 3.5 4Z" stroke="black" stroke-opacity="0.6" stroke-width="0.4" mask="url(#path-1-outside-1_6_2268)"/>
</svg>
