<svg width="26" height="22" viewBox="0 0 26 22" fill="none" xmlns="http://www.w3.org/2000/svg">
<path d="M20.3835 18.3565C21.9426 18.4765 23.5112 18.2873 24.9879 17.8011C25.0443 17.1465 24.9028 16.4903 24.5797 15.9082C24.2566 15.3262 23.7653 14.8423 23.1624 14.5124C22.5596 14.1824 21.8699 14.0201 21.1731 14.044C20.4764 14.0679 19.8011 14.2771 19.2253 14.6475M20.3823 18.3553L20.3835 18.3913C20.3835 18.6522 20.3687 18.9096 20.338 19.1635C18.1045 20.3706 15.5737 21.0039 12.9987 21C10.3279 21 7.82078 20.3322 5.6595 19.1635C5.62786 18.8951 5.61265 18.6253 5.61396 18.3553M20.3835 18.3553C20.3787 17.0413 19.977 15.7557 19.2253 14.6487M19.2253 14.6487C18.5581 13.6629 17.6377 12.8516 16.5494 12.2899C15.461 11.7281 14.2398 11.434 12.9987 11.4348C11.7579 11.4342 10.5369 11.7284 9.44879 12.2901C8.36064 12.8519 7.44047 13.6631 6.77337 14.6487M6.77337 14.6487C6.19762 14.2786 5.52244 14.0697 4.82591 14.0459C4.12937 14.0222 3.43993 14.1847 2.83729 14.5145C2.23465 14.8444 1.74343 15.3282 1.42043 15.91C1.09743 16.4918 0.955833 17.1479 1.01202 17.8023C2.48763 18.2912 4.05655 18.4797 5.61519 18.3553M6.77214 14.6487C6.02089 15.7558 5.61961 17.0414 5.61519 18.3553M16.6911 4.47826C16.6911 5.40075 16.3021 6.28546 15.6096 6.93776C14.9172 7.59006 13.978 7.95652 12.9987 7.95652C12.0195 7.95652 11.0803 7.59006 10.3878 6.93776C9.69537 6.28546 9.30635 5.40075 9.30635 4.47826C9.30635 3.55577 9.69537 2.67106 10.3878 2.01876C11.0803 1.36646 12.0195 1 12.9987 1C13.978 1 14.9172 1.36646 15.6096 2.01876C16.3021 2.67106 16.6911 3.55577 16.6911 4.47826V4.47826ZM24.0759 7.95652C24.0759 8.29909 24.0043 8.63832 23.8651 8.95482C23.7259 9.27132 23.5219 9.5589 23.2648 9.80114C23.0076 10.0434 22.7024 10.2355 22.3664 10.3666C22.0304 10.4977 21.6703 10.5652 21.3066 10.5652C20.9429 10.5652 20.5828 10.4977 20.2468 10.3666C19.9109 10.2355 19.6056 10.0434 19.3484 9.80114C19.0913 9.5589 18.8873 9.27132 18.7481 8.95482C18.6089 8.63832 18.5373 8.29909 18.5373 7.95652C18.5373 7.26465 18.8291 6.60112 19.3484 6.11189C19.8678 5.62267 20.5721 5.34782 21.3066 5.34782C22.0411 5.34782 22.7454 5.62267 23.2648 6.11189C23.7841 6.60112 24.0759 7.26465 24.0759 7.95652V7.95652ZM7.46016 7.95652C7.46016 8.29909 7.38853 8.63832 7.24936 8.95482C7.11019 9.27132 6.9062 9.5589 6.64905 9.80114C6.3919 10.0434 6.08661 10.2355 5.75063 10.3666C5.41464 10.4977 5.05453 10.5652 4.69087 10.5652C4.3272 10.5652 3.96709 10.4977 3.6311 10.3666C3.29512 10.2355 2.98983 10.0434 2.73268 9.80114C2.47553 9.5589 2.27155 9.27132 2.13238 8.95482C1.99321 8.63832 1.92158 8.29909 1.92158 7.95652C1.92158 7.26465 2.21334 6.60112 2.73268 6.11189C3.25202 5.62267 3.9564 5.34782 4.69087 5.34782C5.42533 5.34782 6.12971 5.62267 6.64905 6.11189C7.16839 6.60112 7.46016 7.26465 7.46016 7.95652V7.95652Z" stroke="black" stroke-opacity="0.6" stroke-width="2" stroke-linecap="round" stroke-linejoin="round"/>
</svg>
