<svg width="20" height="24" viewBox="0 0 20 24" fill="none" xmlns="http://www.w3.org/2000/svg">
<path d="M10 11.2494C10.7578 11.2494 11.4845 10.9334 12.0203 10.3708C12.5561 9.80816 12.8571 9.04511 12.8571 8.24948C12.8571 7.45384 12.5561 6.69079 12.0203 6.12819C11.4845 5.56559 10.7578 5.24953 10 5.24953C9.24224 5.24953 8.51551 5.56559 7.9797 6.12819C7.44388 6.69079 7.14286 7.45384 7.14286 8.24948C7.14286 9.04511 7.44388 9.80816 7.9797 10.3708C8.51551 10.9334 9.24224 11.2494 10 11.2494ZM10 18.7493C13.5714 18.7493 15 16.8668 15 14.9994C15 14.4026 14.7742 13.8303 14.3724 13.4084C13.9705 12.9865 13.4255 12.7494 12.8571 12.7494H7.14286C6.57454 12.7494 6.02949 12.9865 5.62763 13.4084C5.22576 13.8303 5 14.4026 5 14.9994C5 16.8743 6.42857 18.7493 10 18.7493ZM10.3957 0.12561C10.2785 0.0437008 10.1408 0 10 0C9.85919 0 9.72151 0.0437008 9.60429 0.12561C6.90734 2.03462 3.83303 3.27627 0.612857 3.75705C0.442715 3.78268 0.28708 3.87187 0.174508 4.00825C0.0619357 4.14463 -2.29128e-05 4.31906 6.35626e-09 4.49954V11.2494C6.35626e-09 17.0858 3.29571 21.3443 9.74286 23.9497C9.90834 24.0168 10.0917 24.0168 10.2571 23.9497C16.7043 21.3443 20 17.0843 20 11.2494V4.49954C20 4.31884 19.9378 4.14423 19.825 4.00781C19.7121 3.87139 19.5561 3.78235 19.3857 3.75705C16.166 3.27605 13.0922 2.03441 10.3957 0.12561ZM1.42857 5.14153C4.25861 4.63825 6.97277 3.57873 9.42857 2.01858L10 1.64508L10.5714 2.01858C13.0272 3.57873 15.7414 4.63825 18.5714 5.14153V11.2494C18.5714 16.3373 15.76 20.0438 10 22.4437C4.24 20.0438 1.42857 16.3373 1.42857 11.2494V5.14153Z" fill="black" fill-opacity="0.6"/>
</svg>
