<svg width="20" height="22" viewBox="0 0 20 22" fill="none" xmlns="http://www.w3.org/2000/svg">
<path d="M11.9698 3.49119C11.9698 2.96209 11.7596 2.45466 11.3855 2.08054C11.0114 1.70641 10.5039 1.49622 9.97483 1.49622C9.44573 1.49622 8.9383 1.70641 8.56417 2.08054C8.19005 2.45466 7.97986 2.96209 7.97986 3.49119H11.9698ZM6.48364 3.49119C6.48364 3.03272 6.57394 2.57874 6.74939 2.15517C6.92484 1.7316 7.182 1.34673 7.50618 1.02255C7.83037 0.698359 8.21524 0.4412 8.63881 0.265751C9.06238 0.0903023 9.51636 0 9.97483 0C10.4333 0 10.8873 0.0903023 11.3108 0.265751C11.7344 0.4412 12.1193 0.698359 12.4435 1.02255C12.7677 1.34673 13.0248 1.7316 13.2003 2.15517C13.3757 2.57874 13.466 3.03272 13.466 3.49119H19.2015C19.4 3.49119 19.5902 3.57001 19.7305 3.71031C19.8708 3.8506 19.9497 4.04089 19.9497 4.2393C19.9497 4.43771 19.8708 4.628 19.7305 4.7683C19.5902 4.90859 19.4 4.98741 19.2015 4.98741H17.8849L17.3841 10.1693C16.0179 9.47923 14.4515 9.29473 12.9623 9.64851C11.4731 10.0023 10.1571 10.8715 9.24723 12.1024C8.33733 13.3332 7.89223 14.8463 7.9907 16.3737C8.08918 17.9012 8.72489 19.3446 9.78531 20.4484H6.95744C6.02765 20.4485 5.13115 20.1023 4.44274 19.4773C3.75432 18.8524 3.32335 17.9934 3.23384 17.0679L2.06479 4.98741H0.748112C0.5497 4.98741 0.359415 4.90859 0.219117 4.7683C0.0788186 4.628 0 4.43771 0 4.2393C0 4.04089 0.0788186 3.8506 0.219117 3.71031C0.359415 3.57001 0.5497 3.49119 0.748112 3.49119H6.48364ZM19.9497 15.9597C19.9497 17.4147 19.3716 18.8102 18.3428 19.839C17.3139 20.8679 15.9185 21.4459 14.4635 21.4459C13.0085 21.4459 11.6131 20.8679 10.5842 19.839C9.55535 18.8102 8.97734 17.4147 8.97734 15.9597C8.97734 14.5047 9.55535 13.1093 10.5842 12.0804C11.6131 11.0516 13.0085 10.4736 14.4635 10.4736C15.9185 10.4736 17.3139 11.0516 18.3428 12.0804C19.3716 13.1093 19.9497 14.5047 19.9497 15.9597ZM12.8216 13.6116C12.728 13.518 12.601 13.4654 12.4685 13.4654C12.3361 13.4654 12.2091 13.518 12.1154 13.6116C12.0218 13.7053 11.9692 13.8323 11.9692 13.9648C11.9692 14.0972 12.0218 14.2242 12.1154 14.3179L13.7583 15.9597L12.1154 17.6016C12.0218 17.6952 11.9692 17.8222 11.9692 17.9547C11.9692 18.0871 12.0218 18.2141 12.1154 18.3078C12.2091 18.4014 12.3361 18.4541 12.4685 18.4541C12.601 18.4541 12.728 18.4014 12.8216 18.3078L14.4635 16.6649L16.1054 18.3078C16.1517 18.3542 16.2068 18.391 16.2674 18.416C16.3279 18.4411 16.3929 18.4541 16.4585 18.4541C16.524 18.4541 16.589 18.4411 16.6496 18.416C16.7102 18.391 16.7652 18.3542 16.8116 18.3078C16.8579 18.2614 16.8947 18.2064 16.9198 18.1458C16.9449 18.0852 16.9578 18.0203 16.9578 17.9547C16.9578 17.8891 16.9449 17.8242 16.9198 17.7636C16.8947 17.703 16.8579 17.6479 16.8116 17.6016L15.1687 15.9597L16.8116 14.3179C16.9052 14.2242 16.9578 14.0972 16.9578 13.9648C16.9578 13.8323 16.9052 13.7053 16.8116 13.6116C16.7179 13.518 16.5909 13.4654 16.4585 13.4654C16.326 13.4654 16.199 13.518 16.1054 13.6116L14.4635 15.2545L12.8216 13.6116Z" fill="black" fill-opacity="0.6"/>
</svg>
