<svg width="18" height="20" viewBox="0 0 18 20" fill="none" xmlns="http://www.w3.org/2000/svg">
<path d="M0.106094 15.6162C-0.0201909 15.9264 -0.0341238 16.2657 0.0663686 16.5837C0.166861 16.9018 0.376408 17.1815 0.663828 17.3812C3.04622 19.0825 5.97859 20.0042 8.99582 20L0.106094 15.6162ZM0.106094 15.6162L1.02892 16.0014C1.02963 15.9998 1.03033 15.9981 1.03104 15.9964M0.106094 15.6162L1.03226 15.9933C1.03185 15.9944 1.03144 15.9954 1.03104 15.9964M1.03104 15.9964C0.993474 16.0906 0.990314 16.1888 1.01989 16.2824C1.05031 16.3787 1.11905 16.4798 1.23456 16.5601L1.24502 16.5674L1.24498 16.5674C3.45191 18.1434 6.17922 19.0039 8.99443 19L8.99582 19C11.9292 19 14.6209 18.0854 16.7548 16.5613L16.7562 16.5602C17.006 16.3825 17.0332 16.1523 16.9692 16.0003L16.9684 15.9982C16.3609 14.5448 15.2818 13.2804 13.8589 12.3821C12.4352 11.4834 10.7399 10.9979 8.99735 10.9983C7.25479 10.9986 5.55979 11.4849 4.13657 12.3842C2.71572 13.282 1.63818 14.545 1.03104 15.9964ZM11.2049 5.66531C10.6323 6.19144 9.83896 6.5 8.99582 6.5C8.15269 6.49999 7.35932 6.19144 6.78675 5.66531C6.21702 5.14178 5.91485 4.45074 5.91485 3.75C5.91485 3.04926 6.21702 2.35821 6.78675 1.83468C7.35932 1.30855 8.15269 1 8.99582 1C9.83896 1 10.6323 1.30855 11.2049 1.83468C11.7746 2.35821 12.0768 3.04926 12.0768 3.75C12.0768 4.45074 11.7746 5.14178 11.2049 5.66531Z" stroke="black" stroke-opacity="0.6" stroke-width="2"/>
</svg>
