<svg width="36" height="36" viewBox="0 0 36 36" fill="none" xmlns="http://www.w3.org/2000/svg">
<path d="M30.0375 10.9035H22.536V9.04048H30.0375V10.9035ZM17.5425 18.5445C18.0255 19.2945 18.267 20.205 18.267 21.273C18.267 22.3785 17.994 23.37 17.4405 24.246C17.0991 24.8137 16.6514 25.3102 16.122 25.7085C15.5016 26.1769 14.7823 26.4971 14.019 26.6445C13.1533 26.8171 12.2722 26.901 11.3895 26.895H3V8.26648H11.997C14.2635 8.30398 15.87 8.96098 16.821 10.251C17.391 11.043 17.673 11.991 17.673 13.0965C17.673 14.235 17.388 15.1455 16.812 15.8385C16.4925 16.227 16.02 16.5795 15.3945 16.899C16.341 17.2455 17.0595 17.7915 17.541 18.5445H17.5425ZM7.2975 15.612H11.238C12.048 15.612 12.7035 15.4575 13.2075 15.15C13.7115 14.8425 13.9635 14.295 13.9635 13.512C13.9635 12.645 13.6305 12.0705 12.963 11.793C12.3885 11.601 11.655 11.502 10.764 11.502H7.296V15.612H7.2975ZM14.343 21.0075C14.343 20.04 13.947 19.371 13.158 19.0125C12.7155 18.807 12.093 18.7035 11.295 18.696H7.296V23.661H11.235C12.0435 23.661 12.669 23.5545 13.1205 23.334C13.935 22.9275 14.3445 22.155 14.3445 21.0075H14.343ZM32.82 17.9775C32.91 18.5865 32.952 19.47 32.9355 20.6265H23.22C23.274 21.9675 23.736 22.905 24.615 23.442C25.1445 23.778 25.785 23.943 26.538 23.943C27.33 23.943 27.9765 23.742 28.473 23.3295C28.7445 23.112 28.983 22.8045 29.19 22.4145H32.751C32.658 23.2065 32.229 24.0105 31.4595 24.8265C30.2655 26.124 28.5915 26.775 26.4405 26.775C24.6645 26.775 23.0985 26.226 21.7395 25.1325C20.385 24.0345 19.7055 22.2555 19.7055 19.7865C19.7055 17.472 20.316 15.7005 21.5415 14.4675C22.7715 13.2315 24.3585 12.6165 26.3145 12.6165C27.4755 12.6165 28.5195 12.8235 29.4525 13.2405C30.3825 13.6575 31.1505 14.3145 31.7565 15.216C32.304 16.011 32.6565 16.929 32.8215 17.976L32.82 17.9775ZM29.3145 18.324C29.25 17.397 28.9395 16.695 28.383 16.215C27.8295 15.735 27.138 15.4935 26.3145 15.4935C25.4175 15.4935 24.7245 15.7515 24.234 16.2585C23.739 16.764 23.43 17.4525 23.304 18.324H29.3145Z" fill="#FCFAD5"/>
</svg>
